<svg width="81" height="67" viewBox="0 0 81 67" fill="none" xmlns="http://www.w3.org/2000/svg">
<mask id="path-1-outside-1" maskUnits="userSpaceOnUse" x="-0.620728" y="-0.0160217" width="82" height="67" fill="black">
<rect fill="white" x="-0.620728" y="-0.0160217" width="82" height="67"/>
<path fill-rule="evenodd" clip-rule="evenodd" d="M0.379272 64.7602V2.18695C0.379272 1.52227 0.916293 0.983978 1.5788 0.983978H35.1622C35.1738 0.983978 35.1851 0.986711 35.1958 0.989321C35.2085 0.992378 35.2204 0.995267 35.2313 0.993395C35.3375 1.00033 35.4418 1.02115 35.5421 1.05585C35.5796 1.06725 35.6162 1.08014 35.6522 1.0955C35.7837 1.15349 35.9032 1.23478 36.005 1.33639L47.9988 13.3696C48.0996 13.4717 48.1806 13.5911 48.2389 13.722C48.2503 13.7474 48.2582 13.7727 48.2663 13.7983C48.2702 13.8106 48.2741 13.8229 48.2784 13.8355C48.313 13.9351 48.3338 14.0392 48.3397 14.1448C48.3408 14.1566 48.344 14.1676 48.3472 14.1787C48.3511 14.1923 48.355 14.2059 48.355 14.2206V63H81.0001V66H1.00005V65.8146C0.629948 65.6097 0.379272 65.2144 0.379272 64.7602ZM45.9564 63H2.77784V3.39041H33.9626V14.2206C33.9626 14.8848 34.4997 15.4236 35.1617 15.4236H45.9564V63ZM36.3612 13.0172H44.2604L36.3612 5.09202V13.0172ZM9.9745 10.6102H19.5697V13.0171H9.9745V10.6102ZM38.7597 17.8305H9.9745V20.2369H38.7597V17.8305ZM29.165 25.0503H9.9745V27.4572H29.165V25.0503ZM31.5636 25.0503H38.7598V27.4572H31.5636V25.0503ZM38.7597 32.2701H9.9745V34.6771H38.7597V32.2701ZM9.9745 46.7102H38.7597V49.1172H9.9745V46.7102ZM38.7598 39.4904H20.7688V41.8969H38.7598V39.4904ZM9.9745 39.4904H18.3702V41.8969H9.9745V39.4904ZM14.7721 53.9305H9.9745V56.337H14.7721V53.9305ZM17.1707 53.9305H38.7598V56.337H17.1707V53.9305Z"/>
</mask>
<path fill-rule="evenodd" clip-rule="evenodd" d="M0.379272 64.7602V2.18695C0.379272 1.52227 0.916293 0.983978 1.5788 0.983978H35.1622C35.1738 0.983978 35.1851 0.986711 35.1958 0.989321C35.2085 0.992378 35.2204 0.995267 35.2313 0.993395C35.3375 1.00033 35.4418 1.02115 35.5421 1.05585C35.5796 1.06725 35.6162 1.08014 35.6522 1.0955C35.7837 1.15349 35.9032 1.23478 36.005 1.33639L47.9988 13.3696C48.0996 13.4717 48.1806 13.5911 48.2389 13.722C48.2503 13.7474 48.2582 13.7727 48.2663 13.7983C48.2702 13.8106 48.2741 13.8229 48.2784 13.8355C48.313 13.9351 48.3338 14.0392 48.3397 14.1448C48.3408 14.1566 48.344 14.1676 48.3472 14.1787C48.3511 14.1923 48.355 14.2059 48.355 14.2206V63H81.0001V66H1.00005V65.8146C0.629948 65.6097 0.379272 65.2144 0.379272 64.7602ZM45.9564 63H2.77784V3.39041H33.9626V14.2206C33.9626 14.8848 34.4997 15.4236 35.1617 15.4236H45.9564V63ZM36.3612 13.0172H44.2604L36.3612 5.09202V13.0172ZM9.9745 10.6102H19.5697V13.0171H9.9745V10.6102ZM38.7597 17.8305H9.9745V20.2369H38.7597V17.8305ZM29.165 25.0503H9.9745V27.4572H29.165V25.0503ZM31.5636 25.0503H38.7598V27.4572H31.5636V25.0503ZM38.7597 32.2701H9.9745V34.6771H38.7597V32.2701ZM9.9745 46.7102H38.7597V49.1172H9.9745V46.7102ZM38.7598 39.4904H20.7688V41.8969H38.7598V39.4904ZM9.9745 39.4904H18.3702V41.8969H9.9745V39.4904ZM14.7721 53.9305H9.9745V56.337H14.7721V53.9305ZM17.1707 53.9305H38.7598V56.337H17.1707V53.9305Z" fill="#212531"/>
<path d="M35.1958 0.989321L35.1252 1.2809L35.1252 1.2809L35.1958 0.989321ZM35.2313 0.993395L35.2509 0.694033L35.2156 0.691726L35.1807 0.697704L35.2313 0.993395ZM35.5421 1.05585L35.4439 1.33957L35.4549 1.34291L35.5421 1.05585ZM35.6522 1.0955L35.7734 0.821016L35.7698 0.819503L35.6522 1.0955ZM36.005 1.33639L36.2175 1.12461L36.217 1.12409L36.005 1.33639ZM47.9988 13.3696L48.2123 13.1588L48.2113 13.1578L47.9988 13.3696ZM48.2389 13.722L47.9649 13.8441L47.9649 13.8442L48.2389 13.722ZM48.2663 13.7983L48.5524 13.7079L48.5524 13.7079L48.2663 13.7983ZM48.2784 13.8355L47.9948 13.9334L47.995 13.9339L48.2784 13.8355ZM48.3397 14.1448L48.0399 14.1616L48.041 14.1729L48.3397 14.1448ZM48.3472 14.1787L48.0589 14.2618L48.0589 14.2618L48.3472 14.1787ZM48.355 63H48.055V63.3H48.355V63ZM81.0001 63H81.3001V62.7H81.0001V63ZM81.0001 66V66.3H81.3001V66H81.0001ZM1.00005 66H0.700053V66.3H1.00005V66ZM1.00005 65.8146H1.30005V65.6378L1.14536 65.5522L1.00005 65.8146ZM2.77784 63H2.47784V63.3H2.77784V63ZM45.9564 63V63.3H46.2564V63H45.9564ZM2.77784 3.39041V3.09041H2.47784V3.39041H2.77784ZM33.9626 3.39041H34.2626V3.09041H33.9626V3.39041ZM45.9564 15.4236H46.2564V15.1236H45.9564V15.4236ZM44.2604 13.0172V13.3172H44.983L44.4729 12.8054L44.2604 13.0172ZM36.3612 13.0172H36.0612V13.3172H36.3612V13.0172ZM36.3612 5.09202L36.5737 4.88024L36.0612 4.36607V5.09202H36.3612ZM19.5697 10.6102H19.8697V10.3102H19.5697V10.6102ZM9.9745 10.6102V10.3102H9.6745V10.6102H9.9745ZM19.5697 13.0171V13.3171H19.8697V13.0171H19.5697ZM9.9745 13.0171H9.6745V13.3171H9.9745V13.0171ZM9.9745 17.8305V17.5305H9.6745V17.8305H9.9745ZM38.7597 17.8305H39.0597V17.5305H38.7597V17.8305ZM9.9745 20.2369H9.6745V20.5369H9.9745V20.2369ZM38.7597 20.2369V20.5369H39.0597V20.2369H38.7597ZM9.9745 25.0503V24.7503H9.6745V25.0503H9.9745ZM29.165 25.0503H29.465V24.7503H29.165V25.0503ZM9.9745 27.4572H9.6745V27.7572H9.9745V27.4572ZM29.165 27.4572V27.7572H29.465V27.4572H29.165ZM38.7598 25.0503H39.0598V24.7503H38.7598V25.0503ZM31.5636 25.0503V24.7503H31.2636V25.0503H31.5636ZM38.7598 27.4572V27.7572H39.0598V27.4572H38.7598ZM31.5636 27.4572H31.2636V27.7572H31.5636V27.4572ZM9.9745 32.2701V31.9701H9.6745V32.2701H9.9745ZM38.7597 32.2701H39.0597V31.9701H38.7597V32.2701ZM9.9745 34.6771H9.6745V34.9771H9.9745V34.6771ZM38.7597 34.6771V34.9771H39.0597V34.6771H38.7597ZM38.7597 46.7102H39.0597V46.4102H38.7597V46.7102ZM9.9745 46.7102V46.4102H9.6745V46.7102H9.9745ZM38.7597 49.1172V49.4172H39.0597V49.1172H38.7597ZM9.9745 49.1172H9.6745V49.4172H9.9745V49.1172ZM20.7688 39.4904V39.1904H20.4688V39.4904H20.7688ZM38.7598 39.4904H39.0598V39.1904H38.7598V39.4904ZM20.7688 41.8969H20.4688V42.1969H20.7688V41.8969ZM38.7598 41.8969V42.1969H39.0598V41.8969H38.7598ZM18.3702 39.4904H18.6702V39.1904H18.3702V39.4904ZM9.9745 39.4904V39.1904H9.6745V39.4904H9.9745ZM18.3702 41.8969V42.1969H18.6702V41.8969H18.3702ZM9.9745 41.8969H9.6745V42.1969H9.9745V41.8969ZM9.9745 53.9305V53.6305H9.6745V53.9305H9.9745ZM14.7721 53.9305H15.0721V53.6305H14.7721V53.9305ZM9.9745 56.337H9.6745V56.637H9.9745V56.337ZM14.7721 56.337V56.637H15.0721V56.337H14.7721ZM38.7598 53.9305H39.0598V53.6305H38.7598V53.9305ZM17.1707 53.9305V53.6305H16.8707V53.9305H17.1707ZM38.7598 56.337V56.637H39.0598V56.337H38.7598ZM17.1707 56.337H16.8707V56.637H17.1707V56.337ZM0.0792724 2.18695V64.7602H0.679272V2.18695H0.0792724ZM1.5788 0.683978C0.749842 0.683978 0.0792724 1.35735 0.0792724 2.18695H0.679272C0.679272 1.68719 1.08274 1.28398 1.5788 1.28398V0.683978ZM35.1622 0.683978H1.5788V1.28398H35.1622V0.683978ZM35.2664 0.697743C35.2613 0.696502 35.2154 0.683978 35.1622 0.683978V1.28398C35.1448 1.28398 35.1319 1.28195 35.1263 1.28095C35.1216 1.28011 35.1185 1.27926 35.1252 1.2809L35.2664 0.697743ZM35.1807 0.697704C35.2176 0.691368 35.2463 0.694694 35.2578 0.696389C35.268 0.697882 35.2756 0.699964 35.2664 0.697743L35.1252 1.2809C35.1287 1.28174 35.1486 1.28679 35.1706 1.29002C35.194 1.29346 35.2341 1.29729 35.282 1.28909L35.1807 0.697704ZM35.6402 0.772336C35.5141 0.728721 35.3834 0.702692 35.2509 0.694033L35.2118 1.29276C35.2917 1.29798 35.3695 1.31358 35.444 1.33936L35.6402 0.772336ZM35.7698 0.819503C35.7221 0.799171 35.6752 0.782729 35.6292 0.768788L35.4549 1.34291C35.4841 1.35177 35.5103 1.3611 35.5347 1.3715L35.7698 0.819503ZM36.217 1.12409C36.0886 0.995918 35.9381 0.893731 35.7734 0.821039L35.5311 1.36996C35.6292 1.41326 35.7179 1.47365 35.793 1.54869L36.217 1.12409ZM48.2113 13.1578L36.2175 1.12461L35.7925 1.54818L47.7863 13.5814L48.2113 13.1578ZM48.5129 13.5999C48.4402 13.4366 48.3389 13.287 48.2123 13.1588L47.7853 13.5803C47.8603 13.6563 47.921 13.7456 47.9649 13.8441L48.5129 13.5999ZM48.5524 13.7079C48.545 13.6845 48.5323 13.6432 48.5129 13.5998L47.9649 13.8442C47.9682 13.8516 47.9715 13.8608 47.9802 13.8886L48.5524 13.7079ZM48.562 13.7376C48.5592 13.7294 48.5564 13.7208 48.5524 13.7079L47.9802 13.8886C47.9839 13.9003 47.989 13.9165 47.9948 13.9334L48.562 13.7376ZM48.6392 14.128C48.6317 13.9943 48.6055 13.8628 48.5618 13.7371L47.995 13.9339C48.0206 14.0075 48.0358 14.0841 48.0402 14.1616L48.6392 14.128ZM48.6355 14.0956C48.6346 14.0926 48.6343 14.0915 48.6341 14.0908C48.6339 14.0902 48.6341 14.091 48.6345 14.0927C48.6353 14.0961 48.6372 14.1047 48.6384 14.1166L48.041 14.1729C48.0452 14.2171 48.0569 14.2548 48.0589 14.2618L48.6355 14.0956ZM48.655 14.2206C48.655 14.1569 48.6377 14.1034 48.6354 14.0956L48.0589 14.2618C48.0594 14.2636 48.0597 14.2647 48.06 14.2656C48.0603 14.2665 48.0603 14.2668 48.0603 14.2668C48.0603 14.2668 48.0602 14.2662 48.06 14.2654C48.0598 14.2645 48.0594 14.2631 48.0591 14.2613C48.0576 14.2543 48.055 14.2398 48.055 14.2206H48.655ZM48.655 63V14.2206H48.055V63H48.655ZM48.355 63.3H81.0001V62.7H48.355V63.3ZM80.7001 63V66H81.3001V63H80.7001ZM81.0001 65.7H1.00005V66.3H81.0001V65.7ZM1.30005 66V65.8146H0.700053V66H1.30005ZM0.0792724 64.7602C0.0792724 65.3275 0.392727 65.8213 0.854742 66.0771L1.14536 65.5522C0.86717 65.3982 0.679272 65.1013 0.679272 64.7602H0.0792724ZM2.77784 63.3H45.9564V62.7H2.77784V63.3ZM3.07784 63V3.39041H2.47784V63H3.07784ZM2.77784 3.69041H33.9626V3.09041H2.77784V3.69041ZM33.6626 3.39041V14.2206H34.2626V3.39041H33.6626ZM33.6626 14.2206C33.6626 15.0496 34.333 15.7236 35.1617 15.7236V15.1236C34.6663 15.1236 34.2626 14.72 34.2626 14.2206H33.6626ZM35.1617 15.7236H45.9564V15.1236H35.1617V15.7236ZM45.6564 15.4236V63H46.2564V15.4236H45.6564ZM44.2604 12.7172H36.3612V13.3172H44.2604V12.7172ZM36.1487 5.3038L44.0479 13.2289L44.4729 12.8054L36.5737 4.88024L36.1487 5.3038ZM36.6612 13.0172V5.09202H36.0612V13.0172H36.6612ZM19.5697 10.3102H9.9745V10.9102H19.5697V10.3102ZM19.8697 13.0171V10.6102H19.2697V13.0171H19.8697ZM9.9745 13.3171H19.5697V12.7171H9.9745V13.3171ZM9.6745 10.6102V13.0171H10.2745V10.6102H9.6745ZM9.9745 18.1305H38.7597V17.5305H9.9745V18.1305ZM10.2745 20.2369V17.8305H9.6745V20.2369H10.2745ZM38.7597 19.9369H9.9745V20.5369H38.7597V19.9369ZM38.4597 17.8305V20.2369H39.0597V17.8305H38.4597ZM9.9745 25.3503H29.165V24.7503H9.9745V25.3503ZM10.2745 27.4572V25.0503H9.6745V27.4572H10.2745ZM29.165 27.1572H9.9745V27.7572H29.165V27.1572ZM28.865 25.0503V27.4572H29.465V25.0503H28.865ZM38.7598 24.7503H31.5636V25.3503H38.7598V24.7503ZM39.0598 27.4572V25.0503H38.4598V27.4572H39.0598ZM31.5636 27.7572H38.7598V27.1572H31.5636V27.7572ZM31.2636 25.0503V27.4572H31.8636V25.0503H31.2636ZM9.9745 32.5701H38.7597V31.9701H9.9745V32.5701ZM10.2745 34.6771V32.2701H9.6745V34.6771H10.2745ZM38.7597 34.3771H9.9745V34.9771H38.7597V34.3771ZM38.4597 32.2701V34.6771H39.0597V32.2701H38.4597ZM38.7597 46.4102H9.9745V47.0102H38.7597V46.4102ZM39.0597 49.1172V46.7102H38.4597V49.1172H39.0597ZM9.9745 49.4172H38.7597V48.8172H9.9745V49.4172ZM9.6745 46.7102V49.1172H10.2745V46.7102H9.6745ZM20.7688 39.7904H38.7598V39.1904H20.7688V39.7904ZM21.0688 41.8969V39.4904H20.4688V41.8969H21.0688ZM38.7598 41.5969H20.7688V42.1969H38.7598V41.5969ZM38.4598 39.4904V41.8969H39.0598V39.4904H38.4598ZM18.3702 39.1904H9.9745V39.7904H18.3702V39.1904ZM18.6702 41.8969V39.4904H18.0702V41.8969H18.6702ZM9.9745 42.1969H18.3702V41.5969H9.9745V42.1969ZM9.6745 39.4904V41.8969H10.2745V39.4904H9.6745ZM9.9745 54.2305H14.7721V53.6305H9.9745V54.2305ZM10.2745 56.337V53.9305H9.6745V56.337H10.2745ZM14.7721 56.037H9.9745V56.637H14.7721V56.037ZM14.4721 53.9305V56.337H15.0721V53.9305H14.4721ZM38.7598 53.6305H17.1707V54.2305H38.7598V53.6305ZM39.0598 56.337V53.9305H38.4598V56.337H39.0598ZM17.1707 56.637H38.7598V56.037H17.1707V56.637ZM16.8707 53.9305V56.337H17.4707V53.9305H16.8707Z" fill="#212531" mask="url(#path-1-outside-1)"/>
</svg>
