<svg width="80" height="63" viewBox="0 0 80 63" fill="none" xmlns="http://www.w3.org/2000/svg">
<path fill-rule="evenodd" clip-rule="evenodd" d="M39.8132 31.6362C44.0565 33.1004 47.9457 35.5193 51.2133 38.7867C56.8794 44.4531 60 51.9867 60 60H80V63H0V60C0 51.9867 3.12059 44.4531 8.78684 38.7867C12.0544 35.5193 15.9436 33.1004 20.187 31.6362C15.6421 28.506 12.6562 23.2673 12.6562 17.3438C12.6562 7.78043 20.4367 0 30 0C39.5633 0 47.3438 7.78043 47.3438 17.3438C47.3438 23.2673 44.3579 28.506 39.8132 31.6362ZM3.6875 60H56.3125C56.3125 46.0426 43.9574 33.6875 30 33.6875C16.0426 33.6875 3.6875 46.0426 3.6875 60ZM16.3438 17.3438C16.3438 24.3225 23.0214 31 30 31C36.9786 31 43.6562 24.3225 43.6562 17.3438C43.6562 10.365 36.9786 3.6875 30 3.6875C23.0214 3.6875 16.3438 10.365 16.3438 17.3438Z" fill="#212531"/>
</svg>
