<svg width="96" height="57" viewBox="0 0 96 57" fill="none" xmlns="http://www.w3.org/2000/svg">
<path fill-rule="evenodd" clip-rule="evenodd" d="M19.1031 17.7182C11.9472 17.6997 5.38444 21.6932 2.11224 28.0573C-2.69853 37.4138 1.14327 49.189 10.5 54C13.656 55.6227 17.0363 56.2459 20.3151 56H96V53H85.0216C92.3144 48.4535 95.8449 39.364 93.0369 30.8382C89.7396 20.8267 78.9507 15.3839 68.9392 18.6813L63.3194 7.44152L65.5215 3.03723H69.0185C69.8293 3.03723 70.4866 2.37989 70.4866 1.56913C70.4866 0.758375 69.8293 0.101035 69.0185 0.101035H54.3376C53.5268 0.101035 52.8695 0.758375 52.8695 1.56913C52.8695 2.37989 53.5268 3.03723 54.3376 3.03723H62.2388L60.7707 5.97342H34.6913L36.5734 2.22537C36.6765 2.0191 36.7296 1.79155 36.7283 1.56106C36.7237 0.750301 36.0629 0.096631 35.2521 0.101035H20.5712C18.1387 0.101035 16.1669 2.07287 16.1669 4.50532C16.1669 6.93778 18.1387 8.90961 20.5712 8.90961H26.4435C27.2543 8.90961 27.9116 8.25227 27.9116 7.44152C27.9116 6.63076 27.2543 5.97342 26.4435 5.97342H20.5712C19.7604 5.97342 19.1031 5.31608 19.1031 4.50532C19.1031 3.69457 19.7604 3.03723 20.5712 3.03723H32.8767L25.0547 18.6813C23.1348 18.045 21.1255 17.7198 19.1031 17.7182ZM64.805 53C61.1468 50.7197 58.2363 47.1935 56.7823 42.779C56.3011 41.3182 55.9985 39.8048 55.8805 38.2715H46.9971C46.8782 38.2708 46.7598 38.2556 46.6447 38.226L46.6139 38.2187C46.5959 38.214 46.5792 38.2064 46.5624 38.1988C46.5477 38.1921 46.5328 38.1853 46.517 38.1805C46.4575 38.1629 46.3992 38.142 46.3423 38.1174C46.3369 38.1174 46.3332 38.113 46.3294 38.1086C46.327 38.1058 46.3246 38.103 46.3217 38.1012C46.3144 38.0968 46.2806 38.0807 46.2616 38.0689C46.219 38.0412 46.1777 38.0113 46.1382 37.9794C46.0749 37.935 46.0151 37.8858 45.9591 37.8326L45.9019 37.7739C45.8895 37.7598 45.8798 37.7448 45.8701 37.7297C45.8626 37.7179 45.8551 37.7061 45.8461 37.6946C45.8392 37.6857 45.8291 37.6744 45.8178 37.6615C45.7953 37.6361 45.7677 37.6049 45.7492 37.5757C45.7426 37.5642 45.7379 37.5518 45.7332 37.5395C45.7295 37.5298 45.7258 37.5201 45.7213 37.5111C45.7159 37.5003 45.7089 37.4919 45.702 37.4837C45.6957 37.4762 45.6895 37.4688 45.6846 37.4597L32.3161 10.7242L27.765 19.8264C37.1217 24.6373 40.8068 36.1224 35.9959 45.479C34.367 48.6469 31.991 51.198 29.1974 53H64.805ZM18.9701 53C27.8732 52.9959 35.2464 45.7338 35.2538 36.8284C35.2587 30.7611 31.8601 25.2038 26.4569 22.444L18.9491 37.4597C18.5867 38.1853 17.7045 38.4798 16.9789 38.1174C16.2533 37.755 15.9588 36.8728 16.3212 36.1472L23.7263 21.337C15.1843 18.7714 6.17996 23.6159 3.61428 32.1578C1.04842 40.6996 5.95806 49.9343 14.5 52.5C15.9538 52.9367 17.2594 52.9978 18.7605 53C18.8221 53.0001 18.884 53.0001 18.9463 53C18.9472 53 18.9482 53 18.9491 53C18.9561 53 18.9631 53 18.9701 53ZM91.0625 36.826C91.0501 45.7449 83.8098 52.965 74.8909 52.9525C66.5466 52.9413 59.5821 46.5806 58.8167 38.2715H76.359C76.5871 38.2715 76.8119 38.2185 77.016 38.1167C77.7412 37.7542 78.0354 36.8724 77.6729 36.1472L70.2677 21.337C71.782 20.8821 73.3549 20.6522 74.936 20.6544C83.8549 20.6669 91.075 27.9071 91.0625 36.826ZM67.5372 22.444L73.9836 35.3353H58.8167C59.3263 29.8293 62.6161 24.966 67.5372 22.444ZM66.2291 19.8205C60.3156 22.8398 56.3964 28.7157 55.8805 35.3353H49.3724L61.678 10.7183L66.2291 19.8205ZM59.3027 8.90961L46.9971 33.5208L34.6915 8.90961H59.3027Z" fill="#212531"/>
</svg>
