<svg width="80" height="49" viewBox="0 0 80 49" fill="none" xmlns="http://www.w3.org/2000/svg">
<path fill-rule="evenodd" clip-rule="evenodd" d="M67.9331 0.99559C67.9557 1.06954 67.9708 1.14533 67.9785 1.22226C67.98 1.24182 67.9848 1.2594 67.9895 1.27651C67.9948 1.29608 68 1.31503 68 1.33559V46H80V49H0V46.6689V46V1.33786C0 1.31556 0.00576961 1.296 0.0113358 1.27713C0.0165229 1.25955 0.0215334 1.24256 0.0215334 1.22452C0.0291834 1.1476 0.0443416 1.07181 0.0668666 0.997857C0.0895333 0.924616 0.119992 0.853923 0.157533 0.787056C0.165959 0.772312 0.171693 0.755854 0.17735 0.739617C0.183869 0.720909 0.190285 0.702492 0.2006 0.687324C0.211233 0.671686 0.224974 0.660192 0.238772 0.648648C0.249976 0.639276 0.261218 0.629871 0.270867 0.61819C0.321583 0.55784 0.378533 0.503157 0.440867 0.45499C0.493708 0.412207 0.550092 0.37424 0.609733 0.341657C0.675042 0.308932 0.743467 0.282299 0.813733 0.262324C0.884567 0.240365 0.957525 0.22549 1.03133 0.218123C1.06491 0.209623 1.09905 0.202823 1.13333 0.197723H66.8644C66.8821 0.197723 66.8984 0.20262 66.9145 0.207476C66.9304 0.212252 66.9461 0.21699 66.963 0.21699C67.0398 0.225207 67.1156 0.240365 67.1897 0.262324C67.2582 0.281732 67.3247 0.307939 67.388 0.340523C67.4489 0.372823 67.5066 0.41079 67.5603 0.453857C67.6219 0.502023 67.6786 0.556281 67.7291 0.615923C67.7387 0.627521 67.7494 0.636427 67.7602 0.645436C67.7738 0.656674 67.7875 0.668073 67.7994 0.685057C67.8113 0.701917 67.8176 0.72084 67.824 0.739742C67.8292 0.755148 67.8343 0.77054 67.8425 0.78479C67.88 0.851656 67.9105 0.922348 67.9331 0.99559ZM34 22.6253L61.2264 3.46892H6.7736L34 22.6253ZM3.26667 4.49459L3.26667 46H64.7333V4.49459L34.6437 25.935C34.2563 26.2025 33.7437 26.2025 33.3563 25.935L3.26667 4.49459Z" fill="#212531"/>
</svg>
